<?xml version="1.0" encoding="UTF-8" standalone="no"?>
<!-- Created with Inkscape (http://www.inkscape.org/) -->

<svg
   width="331.13705"
   height="323.99829"
   viewBox="0 0 331.13706 323.9983"
   version="1.1"
   id="svg8"
   inkscape:version="1.2.1 (9c6d41e410, 2022-07-14)"
   sodipodi:docname="commet.svg"
   xmlns:inkscape="http://www.inkscape.org/namespaces/inkscape"
   xmlns:sodipodi="http://sodipodi.sourceforge.net/DTD/sodipodi-0.dtd"
   xmlns="http://www.w3.org/2000/svg"
   xmlns:svg="http://www.w3.org/2000/svg"
   xmlns:rdf="http://www.w3.org/1999/02/22-rdf-syntax-ns#"
   xmlns:cc="http://creativecommons.org/ns#"
   xmlns:dc="http://purl.org/dc/elements/1.1/">
  <defs
     id="defs2" />
  <sodipodi:namedview
     id="base"
     pagecolor="#525252"
     bordercolor="#404040"
     borderopacity="1"
     inkscape:pageopacity="0"
     inkscape:pageshadow="2"
     inkscape:zoom="0.49497475"
     inkscape:cx="364.66507"
     inkscape:cy="177.78685"
     inkscape:document-units="px"
     inkscape:current-layer="layer1"
     showgrid="false"
     inkscape:window-width="1295"
     inkscape:window-height="1047"
     inkscape:window-x="621"
     inkscape:window-y="3"
     inkscape:window-maximized="0"
     inkscape:pagecheckerboard="0"
     units="px"
     fit-margin-top="0"
     fit-margin-left="0"
     fit-margin-right="0"
     fit-margin-bottom="0"
     inkscape:showpageshadow="0"
     inkscape:deskcolor="#525252" />
  <metadata
     id="metadata5">
    <rdf:RDF>
      <cc:Work
         rdf:about="">
        <dc:format>image/svg+xml</dc:format>
        <dc:type
           rdf:resource="http://purl.org/dc/dcmitype/StillImage" />
      </cc:Work>
    </rdf:RDF>
  </metadata>
  <g
     inkscape:label="Layer 1"
     inkscape:groupmode="layer"
     id="layer1"
     transform="translate(-431.57434,-620.85803)">
    <path
       d="m 628.10824,737.56939 a 14.553263,14.553263 0 1 1 -19.6346,-21.44806 l 17.4293,-15.07994 -1.3219,12.2555 27.2135,-16.78564 -16.2414,23.8439 8.8083,2.29153 z"
       id="path97219"
       style="display:inline;fill:#35e3c1;fill-opacity:1;stroke-width:0.327349" />
    <path
       d="M 539.9357,788.1585 A 14.553263,14.553263 0 1 1 520.301,766.71082 l 17.4293,-15.07956 -1.3218,12.25512 25.8219,-14.16643 -14.8499,21.22469 8.8083,2.29153 z"
       id="path97221"
       style="display:inline;fill:#35e3c1;fill-opacity:1;stroke-width:0.327349" />
    <path
       d="m 561.0519,870.18408 a 28.806974,28.806974 0 0 1 -39.5437,-41.9006 l 31.8363,-29.18476 -2.4443,12.22111 27.2629,-21.00889 -1.8803,14.61619 48.7985,-34.25688 -44.286,58.04258 18.0359,1.53487 z"
       id="path97223"
       style="display:inline;fill:#35e3c1;fill-opacity:1;stroke-width:0.327349" />
    <circle
       cx="541.28003"
       cy="849.23401"
       r="18.331522"
       id="circle97227"
       style="display:inline;fill:#569e8f;fill-opacity:1;stroke-width:0.327349" />
    <path
       d="m 558.8718,854.40266 a 18.292567,18.292567 0 0 1 -4.7564,7.91849 5.2375775,5.2375775 0 1 1 4.7564,-7.91849 z"
       id="path97229"
       style="display:inline;fill:#569e8f;fill-opacity:1;stroke-width:0.327349" />
    <circle
       cx="536.04248"
       cy="851.85272"
       r="5.2375774"
       id="circle97231"
       style="display:inline;fill:#428476;fill-opacity:1;stroke-width:0.327349" />
    <path
       d="m 558.8718,854.40266 a 18.292567,18.292567 0 0 1 -4.7564,7.91849 5.2375775,5.2375775 0 1 1 4.7564,-7.91849 z"
       id="path97233"
       style="display:inline;fill:#428476;fill-opacity:1;stroke-width:0.327349" />
    <path
       d="m 538.6613,849.23378 a 2.6187887,2.6187887 0 0 1 -1.8518,-4.4708 l 5.2376,-5.2373 a 2.6188562,2.6188562 0 0 1 3.7036,3.70356 l -5.2376,5.23767 a 2.6102776,2.6102776 0 0 1 -1.8518,0.76687 z"
       id="path97235"
       style="display:inline;fill:#95f9e2;fill-opacity:1;stroke-width:0.327349" />
    <path
       d="m 556.9928,854.47145 a 2.6187887,2.6187887 0 0 1 -1.8518,-4.47081 l 15.7127,-15.71263 a 2.6188562,2.6188562 0 1 1 3.7036,3.70356 l -15.7127,15.71263 a 2.6102776,2.6102776 0 0 1 -1.8518,0.76725 z"
       id="path97237"
       style="display:inline;fill:#95f9e2;fill-opacity:1;stroke-width:0.327349" />
    <path
       d="m 541.2801,836.13998 a 2.6187887,2.6187887 0 0 1 -1.8518,-4.4708 l 15.7127,-15.71263 a 2.6188562,2.6188562 0 1 1 3.7036,3.70356 l -15.7127,15.71263 a 2.6102776,2.6102776 0 0 1 -1.8518,0.76724 z"
       id="path97239"
       style="display:inline;fill:#95f9e2;fill-opacity:1;stroke-width:0.327349" />
    <path
       d="m 599.7609,823.91359 a 2.6187887,2.6187887 0 0 1 -1.8849,-4.43603 l 16.7217,-17.34955 a 2.6187887,2.6187887 0 1 1 3.7707,3.63364 l -16.7216,17.34917 a 2.6102776,2.6102776 0 0 1 -1.8859,0.80277 z"
       id="path97241"
       style="display:inline;fill:#569e8f;fill-opacity:1;stroke-width:0.327349" />
    <path
       d="m 587.3076,785.12619 a 2.6187887,2.6187887 0 0 1 -1.8165,-4.5052 l 9.5684,-9.21411 a 2.6189931,2.6189931 0 1 1 3.6336,3.77272 l -9.5687,9.21412 a 2.6096229,2.6096229 0 0 1 -1.8168,0.73247 z"
       id="path97243"
       style="display:inline;fill:#569e8f;fill-opacity:1;stroke-width:0.327349" />
    <path
       d="m 563.0982,830.90231 a 2.6187887,2.6187887 0 0 1 -1.8518,-4.4708 l 9.6073,-9.60718 a 2.6188562,2.6188562 0 1 1 3.7036,3.70356 l -9.607,9.60718 a 2.6115871,2.6115871 0 0 1 -1.8521,0.76724 z"
       id="path97245"
       style="display:inline;fill:#95f9e2;fill-opacity:1;stroke-width:0.327349" />
    <circle
       cx="529.64526"
       cy="777.86823"
       r="7.1980686"
       id="circle97247"
       style="display:inline;fill:#428476;fill-opacity:1;stroke-width:0.327349" />
    <circle
       cx="617.79968"
       cy="727.27893"
       r="6.3973732"
       id="circle97249"
       style="display:inline;fill:#569e8f;fill-opacity:1;stroke-width:0.327349" />
    <path
       d="m 646.03324,686.83717 a 2.6187887,2.6187887 0 0 1 -1.678,-4.63068 l 3.1426,-2.61883 a 2.6189565,2.6189565 0 0 1 3.3533,4.02368 l -3.1425,2.61884 a 2.6092956,2.6092956 0 0 1 -1.6754,0.60699 z"
       id="path97251"
       style="display:inline;fill:#569e8f;fill-opacity:1;stroke-width:0.327349" />
    <path
       d="m 664.8885,702.5498 a 2.6187887,2.6187887 0 0 1 -1.678,-4.63068 l 3.1425,-2.61845 a 2.6189565,2.6189565 0 0 1 3.3534,4.02368 l -3.1426,2.61884 a 2.6092956,2.6092956 0 0 1 -1.6753,0.60661 z"
       id="path97253"
       style="display:inline;fill:#35e3c1;fill-opacity:1;stroke-width:0.327349" />
    <path
       d="m 654.41334,713.02514 a 2.6187887,2.6187887 0 0 1 -1.678,-4.63068 l 3.1426,-2.61883 a 2.6189565,2.6189565 0 0 1 3.3533,4.02368 l -3.1425,2.61884 a 2.6092956,2.6092956 0 0 1 -1.6754,0.60699 z"
       id="path97255"
       style="display:inline;fill:#569e8f;fill-opacity:1;stroke-width:0.327349" />
    <path
       d="m 633.46304,697.31251 a 2.6187887,2.6187887 0 0 1 -1.6777,-4.63068 l 5.2376,-4.3646 a 2.6187887,2.6187887 0 1 1 3.3527,4.02331 l -5.2375,4.36498 a 2.6076589,2.6076589 0 0 1 -1.6751,0.60699 z"
       id="path97257"
       style="display:inline;fill:#35e3c1;fill-opacity:1;stroke-width:0.327349" />
    <path
       d="m 670.126,681.5995 a 2.6187887,2.6187887 0 0 1 -1.8518,-4.47042 l 2.6188,-2.61884 a 2.6188619,2.6188619 0 0 1 3.7037,3.70356 l -2.6188,2.61883 a 2.6102776,2.6102776 0 0 1 -1.8519,0.76687 z"
       id="path97259"
       style="display:inline;fill:#35e3c1;fill-opacity:1;stroke-width:0.327349" />
    <path
       d="m 638.1753,786.38288 a 2.6187887,2.6187887 0 0 1 -1.8519,-4.4708 l 2.6188,-2.61884 a 2.6189962,2.6189962 0 0 1 3.7037,3.70394 l -2.6188,2.61883 a 2.6102776,2.6102776 0 0 1 -1.8518,0.76687 z"
       id="path97261"
       style="display:inline;fill:#569e8f;fill-opacity:1;stroke-width:0.327349" />
    <path
       d="m 609.3686,765.43258 a 2.6187887,2.6187887 0 0 1 -1.8518,-4.4708 l 2.6187,-2.61884 a 2.6189962,2.6189962 0 1 1 3.7037,3.70394 l -2.6188,2.61883 a 2.6102776,2.6102776 0 0 1 -1.8518,0.76687 z"
       id="path97263"
       style="display:inline;fill:#569e8f;fill-opacity:1;stroke-width:0.327349" />
    <path
       d="m 659.65094,692.07484 a 2.6187887,2.6187887 0 0 1 -1.8518,-4.4708 l 5.23756,-5.2373 a 2.6188562,2.6188562 0 0 1 3.7036,3.70356 l -5.2376,5.23767 a 2.6102776,2.6102776 0 0 1 -1.85176,0.76687 z"
       id="path97265"
       style="display:inline;fill:#569e8f;fill-opacity:1;stroke-width:0.327349" />
    <path
       d="m 625.0813,799.47668 a 2.6187887,2.6187887 0 0 1 -1.8518,-4.47043 l 5.2376,-5.23767 a 2.6188562,2.6188562 0 0 1 3.7036,3.70356 l -5.2376,5.23767 a 2.6102776,2.6102776 0 0 1 -1.8518,0.76687 z"
       id="path97267"
       style="display:inline;fill:#35e3c1;fill-opacity:1;stroke-width:0.327349" />
    <path
       d="m 577.9431,754.95724 a 2.6187887,2.6187887 0 0 1 -1.8518,-4.47042 l 2.6188,-2.61884 a 2.6188562,2.6188562 0 0 1 3.7036,3.70356 l -2.6188,2.61884 a 2.6102776,2.6102776 0 0 1 -1.8518,0.76686 z"
       id="path97269"
       style="display:inline;fill:#569e8f;fill-opacity:1;stroke-width:0.327349" />
    <path
       d="m 564.8492,768.05142 a 2.6187887,2.6187887 0 0 1 -1.8518,-4.47081 l 5.2375,-5.23767 a 2.6189609,2.6189609 0 1 1 3.7036,3.70394 l -5.2375,5.23729 a 2.6102776,2.6102776 0 0 1 -1.8518,0.76725 z"
       id="path97271"
       style="display:inline;fill:#569e8f;fill-opacity:1;stroke-width:0.327349" />
    <path
       d="m 582.309,734.00694 a 2.6187887,2.6187887 0 0 1 -1.7055,-4.60686 l 6.1106,-5.23767 a 2.6187887,2.6187887 0 1 1 3.4084,3.97644 l -6.1107,5.23767 a 2.6079862,2.6079862 0 0 1 -1.7028,0.63042 z"
       id="path97273"
       style="display:inline;fill:#569e8f;fill-opacity:1;stroke-width:0.327349" />
    <path
       d="m 570.0868,744.48228 a 2.6187887,2.6187887 0 0 1 -1.7056,-4.60724 l 5.2376,-4.4897 a 2.6193578,2.6193578 0 0 1 3.4097,3.97719 l -5.2376,4.48933 a 2.6079862,2.6079862 0 0 1 -1.7041,0.63042 z"
       id="path97275"
       style="display:inline;fill:#35e3c1;fill-opacity:1;stroke-width:0.327349" />
    <path
       d="m 555.8713,736.62578 a 2.6187887,2.6187887 0 0 1 -1.7251,-4.58986 l 8.9785,-7.85613 a 2.618876,2.618876 0 1 1 3.449,3.94167 l -8.9789,7.85651 a 2.6096229,2.6096229 0 0 1 -1.7235,0.64781 z"
       id="path97277"
       style="display:inline;fill:#569e8f;fill-opacity:1;stroke-width:0.327349" />
    <path
       d="m 543.8989,747.10112 a 2.6187887,2.6187887 0 0 1 -1.7255,-4.58986 l 5.9862,-5.23767 a 2.618807,2.618807 0 0 1 3.4486,3.94205 l -5.9859,5.23767 a 2.6079862,2.6079862 0 0 1 -1.7234,0.64781 z"
       id="path97279"
       style="display:inline;fill:#569e8f;fill-opacity:1;stroke-width:0.327349" />
    <path
       d="m 647.4873,752.33841 a 2.6187887,2.6187887 0 0 1 -1.7526,-4.56492 l 11.6389,-10.47533 a 2.6187887,2.6187887 0 1 1 3.5026,3.89291 l -11.6392,10.47496 a 2.6083136,2.6083136 0 0 1 -1.7497,0.67238 z"
       id="path97281"
       style="display:inline;fill:#35e3c1;fill-opacity:1;stroke-width:0.327349" />
    <path
       d="m 632.9377,765.43258 a 2.6187887,2.6187887 0 0 1 -1.753,-4.56529 l 5.8196,-5.23767 a 2.6187887,2.6187887 0 1 1 3.5027,3.89291 l -5.8193,5.23767 a 2.6096229,2.6096229 0 0 1 -1.75,0.67238 z"
       id="path97283"
       style="display:inline;fill:#569e8f;fill-opacity:1;stroke-width:0.327349" />
  </g>
</svg>
