<?xml version="1.0" encoding="UTF-8" standalone="no"?>
<!-- Created with Inkscape (http://www.inkscape.org/) -->

<svg
   width="331.13705"
   height="323.99829"
   viewBox="0 0 331.13706 323.9983"
   version="1.1"
   id="svg8"
   inkscape:version="1.1.1 (3bf5ae0d25, 2021-09-20, custom)"
   sodipodi:docname="moon.svg"
   xmlns:inkscape="http://www.inkscape.org/namespaces/inkscape"
   xmlns:sodipodi="http://sodipodi.sourceforge.net/DTD/sodipodi-0.dtd"
   xmlns:xlink="http://www.w3.org/1999/xlink"
   xmlns="http://www.w3.org/2000/svg"
   xmlns:svg="http://www.w3.org/2000/svg"
   xmlns:rdf="http://www.w3.org/1999/02/22-rdf-syntax-ns#"
   xmlns:cc="http://creativecommons.org/ns#"
   xmlns:dc="http://purl.org/dc/elements/1.1/">
  <defs
     id="defs2" />
  <sodipodi:namedview
     id="base"
     pagecolor="#525252"
     bordercolor="#404040"
     borderopacity="1"
     inkscape:pageopacity="0"
     inkscape:pageshadow="2"
     inkscape:zoom="0.35"
     inkscape:cx="-318.57143"
     inkscape:cy="60"
     inkscape:document-units="px"
     inkscape:current-layer="layer1"
     showgrid="false"
     inkscape:window-width="1914"
     inkscape:window-height="1047"
     inkscape:window-x="3"
     inkscape:window-y="3"
     inkscape:window-maximized="0"
     inkscape:pagecheckerboard="0"
     units="px"
     fit-margin-top="0"
     fit-margin-left="0"
     fit-margin-right="0"
     fit-margin-bottom="0" />
  <metadata
     id="metadata5">
    <rdf:RDF>
      <cc:Work
         rdf:about="">
        <dc:format>image/svg+xml</dc:format>
        <dc:type
           rdf:resource="http://purl.org/dc/dcmitype/StillImage" />
      </cc:Work>
    </rdf:RDF>
  </metadata>
  <g
     inkscape:label="Layer 1"
     inkscape:groupmode="layer"
     id="layer1"
     transform="translate(-431.57434,-620.85803)">
    <g
       id="g20866"
       transform="matrix(2.629463,0,0,2.629463,-492.77212,-2528.764)"
       style="display:inline">
      <path
         style="fill:#35e3c1;fill-opacity:1;stroke-width:0.109067"
         sodipodi:type="inkscape:offset"
         inkscape:radius="1.9551425"
         inkscape:original="M 404.56641 1200.5352 L 404.56641 1205.1465 C 403.76388 1205.2489 402.96655 1205.3654 402.17383 1205.498 L 400.66016 1203.9863 L 397.20898 1203.9863 L 396.94727 1206.6074 C 396.42451 1206.7422 395.90403 1206.8832 395.38672 1207.0312 L 393.57617 1203.623 L 388.80273 1205.3594 C 389.01554 1205.7003 389.23614 1206.0364 389.46289 1206.3672 L 388.35547 1206.8828 L 389.48633 1210.5742 C 389.01584 1210.8352 388.54896 1211.1026 388.08398 1211.377 L 386.04492 1209.709 L 383.60352 1212.1484 L 383.60352 1214.2871 C 382.94926 1214.754 382.3039 1215.2354 381.66406 1215.7305 L 378.40234 1212.4707 L 375.25586 1215.6172 L 376.92578 1217.2871 L 374.87109 1219.3398 L 375.68945 1220.9922 C 374.36913 1222.3126 373.12009 1223.6772 371.94336 1225.082 L 368.19336 1223.1934 L 365.625 1227.8184 L 367.16602 1229.3594 L 364.33984 1232.1855 L 365.39453 1234.5684 L 359.07422 1236.6797 L 358.46484 1238.0117 C 358.50314 1238.0217 358.54175 1238.033 358.58008 1238.043 L 357.33789 1241.4551 L 360.74609 1243.2656 C 360.59795 1243.7827 360.45702 1244.3034 360.32227 1244.8262 L 357.70117 1245.0879 L 357.70117 1248.5391 L 359.21289 1250.0508 C 359.08042 1250.8436 358.96367 1251.6409 358.86133 1252.4434 L 354.25 1252.4434 L 354.25 1256.8945 L 356.61133 1256.8945 L 356.61133 1259.7988 L 358.35742 1260.3887 C 358.35748 1262.256 358.44027 1264.1042 358.60156 1265.9297 L 354.61328 1267.2461 L 356.06641 1272.332 L 358.24609 1272.332 L 358.24609 1276.3281 L 360.67773 1277.2676 L 359.13672 1281.1387 L 359.64648 1282.5137 L 360.00586 1283.4785 L 365.36523 1285.2695 L 364.31055 1287.6523 L 367.13477 1290.4785 L 365.59375 1292.0195 L 368.16211 1296.6426 L 371.91406 1294.7539 C 373.09082 1296.1586 374.33788 1297.5253 375.6582 1298.8457 L 374.8418 1300.4961 L 376.89453 1302.5508 L 375.22656 1304.2207 L 378.37305 1307.3672 L 381.63281 1304.1055 C 382.27265 1304.6006 382.91995 1305.0819 383.57422 1305.5488 L 383.57422 1307.6875 L 386.01562 1310.1289 L 388.05469 1308.4609 C 388.51967 1308.7353 388.98657 1309.0026 389.45703 1309.2637 L 388.32617 1312.9551 L 388.98438 1313.2617 C 388.93388 1313.3407 388.8818 1313.4182 388.83203 1313.498 L 391.82617 1314.5879 L 392.93164 1315.1035 C 392.93964 1315.0685 392.94708 1315.0334 392.95508 1314.998 L 393.60742 1315.2344 L 395.41797 1311.8262 C 395.93529 1311.9742 396.45578 1312.1152 396.97852 1312.25 L 397.24023 1314.8711 L 400.69141 1314.8711 L 402.20312 1313.3594 C 402.99581 1313.492 403.79515 1313.6084 404.59766 1313.7109 L 404.59766 1318.3223 L 409.04688 1318.3223 L 409.04688 1315.9609 L 411.95312 1315.9609 L 412.54297 1314.2148 C 414.41019 1314.2148 416.25854 1314.1316 418.08398 1313.9707 L 419.39844 1317.959 L 424.48633 1316.5059 L 424.48633 1314.3262 L 428.48242 1314.3262 L 429.41992 1311.8945 L 435.38281 1314.8711 L 436.75977 1314.3555 C 436.74977 1314.3385 436.74007 1314.3217 436.73047 1314.3047 L 440.67578 1312.4648 L 439.54688 1308.7734 C 440.01733 1308.5124 440.48426 1308.2451 440.94922 1307.9707 L 442.98828 1309.6387 L 445.42773 1307.1992 L 445.42773 1305.0586 C 446.08199 1304.5917 446.7293 1304.1103 447.36914 1303.6152 L 450.63086 1306.877 L 453.77734 1303.7305 L 452.10742 1302.0605 L 454.16211 1300.0059 L 453.34375 1298.3555 C 454.66407 1297.0351 455.9131 1295.6685 457.08984 1294.2637 L 460.83984 1296.1523 L 463.4082 1291.5293 L 461.86719 1289.9883 L 464.69336 1287.1621 L 463.63672 1284.7793 L 468.99805 1282.9883 C 469.5808 1283.3851 470.17774 1283.7626 470.79102 1284.1152 L 471.30078 1282.7402 L 468.32422 1276.7773 L 470.75586 1275.8398 L 470.75586 1271.8418 L 472.93555 1271.8418 L 474.38867 1266.7559 L 470.40039 1265.4395 C 470.56165 1263.614 470.64445 1261.7677 470.64453 1259.9004 L 472.39062 1259.3105 L 472.39062 1256.4043 L 474.75195 1256.4043 L 474.75195 1251.9551 L 470.14062 1251.9551 C 470.03825 1251.1526 469.92153 1250.3553 469.78906 1249.5625 L 471.30078 1248.0488 L 471.30078 1244.5977 L 468.67969 1244.3359 C 468.54491 1243.8131 468.40398 1243.2925 468.25586 1242.7754 L 471.66406 1240.9648 L 470.42383 1237.5527 C 470.46223 1237.5427 470.5007 1237.5334 470.53906 1237.5234 L 469.92773 1236.1895 L 463.60742 1234.0781 L 464.66211 1231.6953 L 461.83789 1228.8711 L 463.37891 1227.3301 L 460.81055 1222.7051 L 457.05859 1224.5938 C 455.88186 1223.1889 454.6348 1221.8243 453.31445 1220.5039 L 454.13086 1218.8516 L 452.07812 1216.7969 L 453.74805 1215.127 L 450.59961 1211.9805 L 447.33984 1215.2422 C 446.69997 1214.7471 446.05271 1214.2657 445.39844 1213.7988 L 445.39844 1211.6602 L 442.95703 1209.2207 L 440.91992 1210.8887 C 440.45497 1210.6143 439.98609 1210.345 439.51562 1210.084 L 440.64648 1206.3945 L 436.70117 1204.5527 C 436.71117 1204.5357 436.72087 1204.519 436.73047 1204.502 L 436.04297 1204.2461 L 435.35352 1203.9883 L 429.39062 1206.9629 L 428.45312 1204.5332 L 424.45703 1204.5332 L 424.45703 1202.3535 L 419.37109 1200.9004 L 418.05469 1204.8867 C 416.22925 1204.7254 414.38088 1204.6426 412.51367 1204.6426 L 411.92383 1202.8965 L 409.01953 1202.8965 L 409.01953 1200.5352 L 404.56641 1200.5352 z "
         xlink:href="#path2907"
         id="path66302"
         inkscape:href="#path2907"
         transform="translate(-0.76061157,-0.76061157)"
         d="m 404.56641,1198.5801 a 1.955338,1.955338 0 0 0 -1.95508,1.9551 v 2.6386 l -0.57031,-0.5703 a 1.955338,1.955338 0 0 0 -1.38086,-0.5723 h -3.45118 a 1.955338,1.955338 0 0 0 -1.52929,1.3848 l -0.37696,-0.7109 a 1.955338,1.955338 0 0 0 -2.39453,-0.9199 l -4.77343,1.7363 a 1.955338,1.955338 0 0 0 -1.02735,2.539 1.955338,1.955338 0 0 0 -0.62109,1.3946 l 0.23633,0.7676 a 1.955338,1.955338 0 0 0 -2.06055,0.1035 l -2.44141,2.4394 a 1.955338,1.955338 0 0 0 -0.57226,1.3828 v 0.8008 l -1.86328,-1.8613 a 1.955338,1.955338 0 0 0 -2.76563,0 l -3.14648,3.1465 a 1.955338,1.955338 0 0 0 0,2.7656 l 0.28711,0.2871 -0.66993,0.6699 a 1.955338,1.955338 0 0 0 -0.37109,2.25 l 0.22461,0.4532 c -0.63173,0.6599 -1.24347,1.3316 -1.8418,2.0117 l -2.42968,-1.2246 a 1.955338,1.955338 0 0 0 -2.58789,0.7968 l -2.56836,4.625 a 1.955338,1.955338 0 0 0 0.32617,2.3321 l 0.1582,0.1582 -1.44336,1.4433 a 1.955338,1.955338 0 0 0 -0.4043,2.1739 l 0.18555,0.4179 -4.2832,1.4317 a 1.955338,1.955338 0 0 0 -1.1582,1.041 l -0.60938,1.332 a 1.955338,1.955338 0 0 0 0.002,0.3203 l -1.18945,3.2676 a 1.955338,1.955338 0 0 0 0.91992,2.3945 l 0.71094,0.377 a 1.955338,1.955338 0 0 0 -1.38477,1.5293 v 3.4512 a 1.955338,1.955338 0 0 0 0.57227,1.3828 l 0.56641,0.5664 H 354.25 a 1.955338,1.955338 0 0 0 -1.95508,1.9551 v 4.4511 a 1.955338,1.955338 0 0 0 1.95508,1.9551 h 0.40625 v 0.9492 a 1.955338,1.955338 0 0 0 1.33008,1.8516 l 0.47851,0.1621 c 0.0202,0.9127 0.0632,1.8196 0.1211,2.7227 L 354,1265.3887 a 1.955338,1.955338 0 0 0 -1.26758,2.3945 l 1.45313,5.0859 a 1.955338,1.955338 0 0 0 1.88086,1.418 h 0.22461 v 2.041 a 1.955338,1.955338 0 0 0 1.25,1.8242 l 0.58984,0.2286 -0.81055,2.0351 a 1.955338,1.955338 0 0 0 -0.0176,1.4024 l 0.50977,1.375 a 1.955338,1.955338 0 0 0 0.002,0 l 0.35938,0.9649 a 1.955338,1.955338 0 0 0 1.21289,1.1718 l 3.32226,1.1094 -0.18554,0.4199 a 1.955338,1.955338 0 0 0 0.40429,2.1739 l 1.44336,1.4433 -0.16015,0.1582 a 1.955338,1.955338 0 0 0 -0.32617,2.3321 l 2.56835,4.623 a 1.955338,1.955338 0 0 0 2.5879,0.7969 l 2.43164,-1.2246 c 0.59766,0.6801 1.20813,1.3529 1.83984,2.0136 l -0.22266,0.4512 a 1.955338,1.955338 0 0 0 0.36914,2.25 l 0.67188,0.6719 -0.28711,0.289 a 1.955338,1.955338 0 0 0 0,2.7637 l 3.14648,3.1465 a 1.955338,1.955338 0 0 0 2.76563,0 l 1.86328,-1.8652 v 0.8027 a 1.955338,1.955338 0 0 0 0.57227,1.3828 l 2.4414,2.4414 a 1.955338,1.955338 0 0 0 2.06055,0.1035 l -0.23633,0.7676 a 1.955338,1.955338 0 0 0 0.57813,1.3008 1.955338,1.955338 0 0 0 0.41015,0.9199 1.955338,1.955338 0 0 0 0.0547,0.1231 l 0.12109,0.057 a 1.955338,1.955338 0 0 0 0.54297,0.5527 l 2.91406,1.0606 1.02735,0.4785 a 1.955338,1.955338 0 0 0 0.2832,-0 l 0.55274,0.1993 a 1.955338,1.955338 0 0 0 0.54687,-0.211 1.955338,1.955338 0 0 0 0.43164,-0.166 1.955338,1.955338 0 0 0 1.41406,-0.543 l 0.37696,-0.7109 a 1.955338,1.955338 0 0 0 1.52929,1.3848 h 3.45118 a 1.955338,1.955338 0 0 0 1.38281,-0.5723 l 0.56836,-0.5684 v 2.6368 a 1.955338,1.955338 0 0 0 1.95508,1.955 h 4.44922 a 1.955338,1.955338 0 0 0 1.95507,-1.955 v -0.4063 h 0.95117 a 1.955338,1.955338 0 0 0 1.85157,-1.3301 l 0.16211,-0.4785 c 0.91278,-0.02 1.81974,-0.063 2.72265,-0.1211 l 0.85157,2.584 a 1.955338,1.955338 0 0 0 2.39453,1.2695 l 5.08789,-1.4531 a 1.955338,1.955338 0 0 0 1.41797,-1.8808 v -0.2247 h 2.04101 a 1.955338,1.955338 0 0 0 1.82422,-1.2519 l 0.16406,-0.4238 4.03907,2.0156 a 1.955338,1.955338 0 0 0 1.55859,0.08 l 1.37695,-0.5157 a 1.955338,1.955338 0 0 0 0.19727,-0.1503 l 3.85937,-1.7989 a 1.955338,1.955338 0 0 0 1.04297,-2.3437 l -0.23437,-0.7676 a 1.955338,1.955338 0 0 0 2.06054,-0.1035 l 2.43946,-2.4395 a 1.955338,1.955338 0 0 0 0.57226,-1.3828 v -0.8047 l 1.86524,1.8653 a 1.955338,1.955338 0 0 0 2.76562,0 l 3.14649,-3.1465 a 1.955338,1.955338 0 0 0 0,-2.7656 l -0.28711,-0.2872 0.67187,-0.6718 a 1.955338,1.955338 0 0 0 0.36914,-2.252 l -0.22461,-0.4512 c 0.63171,-0.6603 1.24377,-1.3315 1.8418,-2.0117 l 2.42969,1.2246 a 1.955338,1.955338 0 0 0 2.58789,-0.7968 l 2.56836,-4.6231 a 1.955338,1.955338 0 0 0 -0.32617,-2.332 l -0.15821,-0.1582 1.44336,-1.4434 a 1.955338,1.955338 0 0 0 0.4043,-2.1758 l -0.18555,-0.4179 2.44727,-0.8164 c 0.35669,0.2268 0.70417,0.463 1.07422,0.6757 a 1.955338,1.955338 0 0 0 2.80859,-1.0156 l 0.50977,-1.375 a 1.955338,1.955338 0 0 0 -0.084,-1.5527 l -2.01562,-4.0391 0.42382,-0.164 a 1.955338,1.955338 0 0 0 1.25196,-1.8243 v -2.0429 h 0.22461 a 1.955338,1.955338 0 0 0 1.88086,-1.418 l 1.45312,-5.0859 a 1.955338,1.955338 0 0 0 -1.26758,-2.3946 l -2.58593,-0.8535 c 0.0579,-0.9023 0.10092,-1.8086 0.12109,-2.7207 l 0.47851,-0.1621 a 1.955338,1.955338 0 0 0 1.33008,-1.8516 v -0.9511 h 0.40625 a 1.955338,1.955338 0 0 0 1.95508,-1.9551 v -4.4492 A 1.955338,1.955338 0 0 0 474.75195,1250 h -2.63867 l 0.57031,-0.5703 a 1.955338,1.955338 0 0 0 0.57227,-1.3809 v -3.4511 a 1.955338,1.955338 0 0 0 -1.38477,-1.5293 l 0.71094,-0.377 a 1.955338,1.955338 0 0 0 0.91992,-2.3945 l -1.11133,-3.0606 a 1.955338,1.955338 0 0 0 -0.0742,-0.5273 l -0.61133,-1.334 a 1.955338,1.955338 0 0 0 -1.1582,-1.0391 l -4.28321,-1.4316 0.18555,-0.418 a 1.955338,1.955338 0 0 0 -0.4043,-2.1738 l -1.4414,-1.4414 0.1582,-0.1582 a 1.955338,1.955338 0 0 0 0.32617,-2.332 l -2.56836,-4.625 a 1.955338,1.955338 0 0 0 -2.58789,-0.7969 l -2.43164,1.2246 c -0.59796,-0.6802 -1.21009,-1.3514 -1.8418,-2.0117 l 0.22461,-0.4551 a 1.955338,1.955338 0 0 0 -0.36914,-2.2461 l -0.67187,-0.6738 0.28906,-0.2871 a 1.955338,1.955338 0 0 0 0,-2.7657 l -3.14844,-3.1464 a 1.955338,1.955338 0 0 0 -2.76562,0 l -1.86328,1.8652 v -0.8027 a 1.955338,1.955338 0 0 0 -0.57227,-1.3829 l -2.44141,-2.4394 a 1.955338,1.955338 0 0 0 -2.06054,-0.1035 l 0.23632,-0.7676 a 1.955338,1.955338 0 0 0 -1.04296,-2.3438 l -3.85938,-1.8007 a 1.955338,1.955338 0 0 0 -0.20117,-0.1524 l -0.68555,-0.2558 -0.6875,-0.2579 a 1.955338,1.955338 0 0 0 -1.55859,0.082 l -4.03906,2.0156 -0.16407,-0.4238 a 1.955338,1.955338 0 0 0 -1.82422,-1.252 h -2.04101 v -0.2246 a 1.955338,1.955338 0 0 0 -1.41797,-1.8808 l -5.08594,-1.4532 a 1.955338,1.955338 0 0 0 -2.39453,1.2676 l -0.85351,2.584 c -0.90307,-0.058 -1.80991,-0.101 -2.72266,-0.1211 l -0.16211,-0.4785 a 1.955338,1.955338 0 0 0 -1.85156,-1.3301 h -0.94922 v -0.4062 a 1.955338,1.955338 0 0 0 -1.95508,-1.9551 z" />
      <path
         style="fill:#428476;fill-opacity:1;stroke-width:0.109067"
         sodipodi:type="inkscape:offset"
         inkscape:radius="1.9551425"
         inkscape:original="M 404.56641 1200.5352 L 404.56641 1205.1465 C 403.76388 1205.2489 402.96655 1205.3654 402.17383 1205.498 L 400.66016 1203.9863 L 397.20898 1203.9863 L 396.94727 1206.6074 C 396.42451 1206.7422 395.90403 1206.8832 395.38672 1207.0312 L 393.57617 1203.623 L 388.80273 1205.3594 C 389.01554 1205.7003 389.23614 1206.0364 389.46289 1206.3672 L 388.35547 1206.8828 L 389.48633 1210.5742 C 389.01584 1210.8352 388.54896 1211.1026 388.08398 1211.377 L 386.04492 1209.709 L 383.60352 1212.1484 L 383.60352 1214.2871 C 382.94926 1214.754 382.3039 1215.2354 381.66406 1215.7305 L 378.40234 1212.4707 L 375.25586 1215.6172 L 376.92578 1217.2871 L 374.87109 1219.3398 L 375.68945 1220.9922 C 374.36913 1222.3126 373.12009 1223.6772 371.94336 1225.082 L 368.19336 1223.1934 L 365.625 1227.8184 L 367.16602 1229.3594 L 364.33984 1232.1855 L 365.39453 1234.5684 L 359.07422 1236.6797 L 358.46484 1238.0117 C 358.50314 1238.0217 358.54175 1238.033 358.58008 1238.043 L 357.33789 1241.4551 L 360.74609 1243.2656 C 360.59795 1243.7827 360.45702 1244.3034 360.32227 1244.8262 L 357.70117 1245.0879 L 357.70117 1248.5391 L 359.21289 1250.0508 C 359.08042 1250.8436 358.96367 1251.6409 358.86133 1252.4434 L 354.25 1252.4434 L 354.25 1256.8945 L 356.61133 1256.8945 L 356.61133 1259.7988 L 358.35742 1260.3887 C 358.35748 1262.256 358.44027 1264.1042 358.60156 1265.9297 L 354.61328 1267.2461 L 356.06641 1272.332 L 358.24609 1272.332 L 358.24609 1276.3281 L 360.67773 1277.2676 L 359.13672 1281.1387 L 359.64648 1282.5137 L 360.00586 1283.4785 L 365.36523 1285.2695 L 364.31055 1287.6523 L 367.13477 1290.4785 L 365.59375 1292.0195 L 368.16211 1296.6426 L 371.91406 1294.7539 C 373.09082 1296.1586 374.33788 1297.5253 375.6582 1298.8457 L 374.8418 1300.4961 L 376.89453 1302.5508 L 375.22656 1304.2207 L 378.37305 1307.3672 L 381.63281 1304.1055 C 382.27265 1304.6006 382.91995 1305.0819 383.57422 1305.5488 L 383.57422 1307.6875 L 386.01562 1310.1289 L 388.05469 1308.4609 C 388.51967 1308.7353 388.98657 1309.0026 389.45703 1309.2637 L 388.32617 1312.9551 L 388.98438 1313.2617 C 388.93388 1313.3407 388.8818 1313.4182 388.83203 1313.498 L 391.82617 1314.5879 L 392.93164 1315.1035 C 392.93964 1315.0685 392.94708 1315.0334 392.95508 1314.998 L 393.60742 1315.2344 L 395.41797 1311.8262 C 395.93529 1311.9742 396.45578 1312.1152 396.97852 1312.25 L 397.24023 1314.8711 L 400.69141 1314.8711 L 402.20312 1313.3594 C 402.99581 1313.492 403.79515 1313.6084 404.59766 1313.7109 L 404.59766 1318.3223 L 409.04688 1318.3223 L 409.04688 1315.9609 L 411.95312 1315.9609 L 412.54297 1314.2148 C 414.41019 1314.2148 416.25854 1314.1316 418.08398 1313.9707 L 419.39844 1317.959 L 424.48633 1316.5059 L 424.48633 1314.3262 L 428.48242 1314.3262 L 429.41992 1311.8945 L 435.38281 1314.8711 L 436.75977 1314.3555 C 436.74977 1314.3385 436.74007 1314.3217 436.73047 1314.3047 L 440.67578 1312.4648 L 439.54688 1308.7734 C 440.01733 1308.5124 440.48426 1308.2451 440.94922 1307.9707 L 442.98828 1309.6387 L 445.42773 1307.1992 L 445.42773 1305.0586 C 446.08199 1304.5917 446.7293 1304.1103 447.36914 1303.6152 L 450.63086 1306.877 L 453.77734 1303.7305 L 452.10742 1302.0605 L 454.16211 1300.0059 L 453.34375 1298.3555 C 454.66407 1297.0351 455.9131 1295.6685 457.08984 1294.2637 L 460.83984 1296.1523 L 463.4082 1291.5293 L 461.86719 1289.9883 L 464.69336 1287.1621 L 463.63672 1284.7793 L 468.99805 1282.9883 C 469.5808 1283.3851 470.17774 1283.7626 470.79102 1284.1152 L 471.30078 1282.7402 L 468.32422 1276.7773 L 470.75586 1275.8398 L 470.75586 1271.8418 L 472.93555 1271.8418 L 474.38867 1266.7559 L 470.40039 1265.4395 C 470.56165 1263.614 470.64445 1261.7677 470.64453 1259.9004 L 472.39062 1259.3105 L 472.39062 1256.4043 L 474.75195 1256.4043 L 474.75195 1251.9551 L 470.14062 1251.9551 C 470.03825 1251.1526 469.92153 1250.3553 469.78906 1249.5625 L 471.30078 1248.0488 L 471.30078 1244.5977 L 468.67969 1244.3359 C 468.54491 1243.8131 468.40398 1243.2925 468.25586 1242.7754 L 471.66406 1240.9648 L 470.42383 1237.5527 C 470.46223 1237.5427 470.5007 1237.5334 470.53906 1237.5234 L 469.92773 1236.1895 L 463.60742 1234.0781 L 464.66211 1231.6953 L 461.83789 1228.8711 L 463.37891 1227.3301 L 460.81055 1222.7051 L 457.05859 1224.5938 C 455.88186 1223.1889 454.6348 1221.8243 453.31445 1220.5039 L 454.13086 1218.8516 L 452.07812 1216.7969 L 453.74805 1215.127 L 450.59961 1211.9805 L 447.33984 1215.2422 C 446.69997 1214.7471 446.05271 1214.2657 445.39844 1213.7988 L 445.39844 1211.6602 L 442.95703 1209.2207 L 440.91992 1210.8887 C 440.45497 1210.6143 439.98609 1210.345 439.51562 1210.084 L 440.64648 1206.3945 L 436.70117 1204.5527 C 436.71117 1204.5357 436.72087 1204.519 436.73047 1204.502 L 436.04297 1204.2461 L 435.35352 1203.9883 L 429.39062 1206.9629 L 428.45312 1204.5332 L 424.45703 1204.5332 L 424.45703 1202.3535 L 419.37109 1200.9004 L 418.05469 1204.8867 C 416.22925 1204.7254 414.38088 1204.6426 412.51367 1204.6426 L 411.92383 1202.8965 L 409.01953 1202.8965 L 409.01953 1200.5352 L 404.56641 1200.5352 z "
         xlink:href="#path2907"
         id="path8286"
         inkscape:href="#path2907"
         transform="translate(0.76061157,0.76061157)"
         d="m 404.56641,1198.5801 a 1.955338,1.955338 0 0 0 -1.95508,1.9551 v 2.6386 l -0.57031,-0.5703 a 1.955338,1.955338 0 0 0 -1.38086,-0.5723 h -3.45118 a 1.955338,1.955338 0 0 0 -1.52929,1.3848 l -0.37696,-0.7109 a 1.955338,1.955338 0 0 0 -2.39453,-0.9199 l -4.77343,1.7363 a 1.955338,1.955338 0 0 0 -1.02735,2.539 1.955338,1.955338 0 0 0 -0.62109,1.3946 l 0.23633,0.7676 a 1.955338,1.955338 0 0 0 -2.06055,0.1035 l -2.44141,2.4394 a 1.955338,1.955338 0 0 0 -0.57226,1.3828 v 0.8008 l -1.86328,-1.8613 a 1.955338,1.955338 0 0 0 -2.76563,0 l -3.14648,3.1465 a 1.955338,1.955338 0 0 0 0,2.7656 l 0.28711,0.2871 -0.66993,0.6699 a 1.955338,1.955338 0 0 0 -0.37109,2.25 l 0.22461,0.4532 c -0.63173,0.6599 -1.24347,1.3316 -1.8418,2.0117 l -2.42968,-1.2246 a 1.955338,1.955338 0 0 0 -2.58789,0.7968 l -2.56836,4.625 a 1.955338,1.955338 0 0 0 0.32617,2.3321 l 0.1582,0.1582 -1.44336,1.4433 a 1.955338,1.955338 0 0 0 -0.4043,2.1739 l 0.18555,0.4179 -4.2832,1.4317 a 1.955338,1.955338 0 0 0 -1.1582,1.041 l -0.60938,1.332 a 1.955338,1.955338 0 0 0 0.002,0.3203 l -1.18945,3.2676 a 1.955338,1.955338 0 0 0 0.91992,2.3945 l 0.71094,0.377 a 1.955338,1.955338 0 0 0 -1.38477,1.5293 v 3.4512 a 1.955338,1.955338 0 0 0 0.57227,1.3828 l 0.56641,0.5664 H 354.25 a 1.955338,1.955338 0 0 0 -1.95508,1.9551 v 4.4511 a 1.955338,1.955338 0 0 0 1.95508,1.9551 h 0.40625 v 0.9492 a 1.955338,1.955338 0 0 0 1.33008,1.8516 l 0.47851,0.1621 c 0.0202,0.9127 0.0632,1.8196 0.1211,2.7227 L 354,1265.3887 a 1.955338,1.955338 0 0 0 -1.26758,2.3945 l 1.45313,5.0859 a 1.955338,1.955338 0 0 0 1.88086,1.418 h 0.22461 v 2.041 a 1.955338,1.955338 0 0 0 1.25,1.8242 l 0.58984,0.2286 -0.81055,2.0351 a 1.955338,1.955338 0 0 0 -0.0176,1.4024 l 0.50977,1.375 a 1.955338,1.955338 0 0 0 0.002,0 l 0.35938,0.9649 a 1.955338,1.955338 0 0 0 1.21289,1.1718 l 3.32226,1.1094 -0.18554,0.4199 a 1.955338,1.955338 0 0 0 0.40429,2.1739 l 1.44336,1.4433 -0.16015,0.1582 a 1.955338,1.955338 0 0 0 -0.32617,2.3321 l 2.56835,4.623 a 1.955338,1.955338 0 0 0 2.5879,0.7969 l 2.43164,-1.2246 c 0.59766,0.6801 1.20813,1.3529 1.83984,2.0136 l -0.22266,0.4512 a 1.955338,1.955338 0 0 0 0.36914,2.25 l 0.67188,0.6719 -0.28711,0.289 a 1.955338,1.955338 0 0 0 0,2.7637 l 3.14648,3.1465 a 1.955338,1.955338 0 0 0 2.76563,0 l 1.86328,-1.8652 v 0.8027 a 1.955338,1.955338 0 0 0 0.57227,1.3828 l 2.4414,2.4414 a 1.955338,1.955338 0 0 0 2.06055,0.1035 l -0.23633,0.7676 a 1.955338,1.955338 0 0 0 0.57813,1.3008 1.955338,1.955338 0 0 0 0.41015,0.9199 1.955338,1.955338 0 0 0 0.0547,0.1231 l 0.12109,0.057 a 1.955338,1.955338 0 0 0 0.54297,0.5527 l 2.91406,1.0606 1.02735,0.4785 a 1.955338,1.955338 0 0 0 0.2832,-0 l 0.55274,0.1993 a 1.955338,1.955338 0 0 0 0.54687,-0.211 1.955338,1.955338 0 0 0 0.43164,-0.166 1.955338,1.955338 0 0 0 1.41406,-0.543 l 0.37696,-0.7109 a 1.955338,1.955338 0 0 0 1.52929,1.3848 h 3.45118 a 1.955338,1.955338 0 0 0 1.38281,-0.5723 l 0.56836,-0.5684 v 2.6368 a 1.955338,1.955338 0 0 0 1.95508,1.955 h 4.44922 a 1.955338,1.955338 0 0 0 1.95507,-1.955 v -0.4063 h 0.95117 a 1.955338,1.955338 0 0 0 1.85157,-1.3301 l 0.16211,-0.4785 c 0.91278,-0.02 1.81974,-0.063 2.72265,-0.1211 l 0.85157,2.584 a 1.955338,1.955338 0 0 0 2.39453,1.2695 l 5.08789,-1.4531 a 1.955338,1.955338 0 0 0 1.41797,-1.8808 v -0.2247 h 2.04101 a 1.955338,1.955338 0 0 0 1.82422,-1.2519 l 0.16406,-0.4238 4.03907,2.0156 a 1.955338,1.955338 0 0 0 1.55859,0.08 l 1.37695,-0.5157 a 1.955338,1.955338 0 0 0 0.19727,-0.1503 l 3.85937,-1.7989 a 1.955338,1.955338 0 0 0 1.04297,-2.3437 l -0.23437,-0.7676 a 1.955338,1.955338 0 0 0 2.06054,-0.1035 l 2.43946,-2.4395 a 1.955338,1.955338 0 0 0 0.57226,-1.3828 v -0.8047 l 1.86524,1.8653 a 1.955338,1.955338 0 0 0 2.76562,0 l 3.14649,-3.1465 a 1.955338,1.955338 0 0 0 0,-2.7656 l -0.28711,-0.2872 0.67187,-0.6718 a 1.955338,1.955338 0 0 0 0.36914,-2.252 l -0.22461,-0.4512 c 0.63171,-0.6603 1.24377,-1.3315 1.8418,-2.0117 l 2.42969,1.2246 a 1.955338,1.955338 0 0 0 2.58789,-0.7968 l 2.56836,-4.6231 a 1.955338,1.955338 0 0 0 -0.32617,-2.332 l -0.15821,-0.1582 1.44336,-1.4434 a 1.955338,1.955338 0 0 0 0.4043,-2.1758 l -0.18555,-0.4179 2.44727,-0.8164 c 0.35669,0.2268 0.70417,0.463 1.07422,0.6757 a 1.955338,1.955338 0 0 0 2.80859,-1.0156 l 0.50977,-1.375 a 1.955338,1.955338 0 0 0 -0.084,-1.5527 l -2.01562,-4.0391 0.42382,-0.164 a 1.955338,1.955338 0 0 0 1.25196,-1.8243 v -2.0429 h 0.22461 a 1.955338,1.955338 0 0 0 1.88086,-1.418 l 1.45312,-5.0859 a 1.955338,1.955338 0 0 0 -1.26758,-2.3946 l -2.58593,-0.8535 c 0.0579,-0.9023 0.10092,-1.8086 0.12109,-2.7207 l 0.47851,-0.1621 a 1.955338,1.955338 0 0 0 1.33008,-1.8516 v -0.9511 h 0.40625 a 1.955338,1.955338 0 0 0 1.95508,-1.9551 v -4.4492 A 1.955338,1.955338 0 0 0 474.75195,1250 h -2.63867 l 0.57031,-0.5703 a 1.955338,1.955338 0 0 0 0.57227,-1.3809 v -3.4511 a 1.955338,1.955338 0 0 0 -1.38477,-1.5293 l 0.71094,-0.377 a 1.955338,1.955338 0 0 0 0.91992,-2.3945 l -1.11133,-3.0606 a 1.955338,1.955338 0 0 0 -0.0742,-0.5273 l -0.61133,-1.334 a 1.955338,1.955338 0 0 0 -1.1582,-1.0391 l -4.28321,-1.4316 0.18555,-0.418 a 1.955338,1.955338 0 0 0 -0.4043,-2.1738 l -1.4414,-1.4414 0.1582,-0.1582 a 1.955338,1.955338 0 0 0 0.32617,-2.332 l -2.56836,-4.625 a 1.955338,1.955338 0 0 0 -2.58789,-0.7969 l -2.43164,1.2246 c -0.59796,-0.6802 -1.21009,-1.3514 -1.8418,-2.0117 l 0.22461,-0.4551 a 1.955338,1.955338 0 0 0 -0.36914,-2.2461 l -0.67187,-0.6738 0.28906,-0.2871 a 1.955338,1.955338 0 0 0 0,-2.7657 l -3.14844,-3.1464 a 1.955338,1.955338 0 0 0 -2.76562,0 l -1.86328,1.8652 v -0.8027 a 1.955338,1.955338 0 0 0 -0.57227,-1.3829 l -2.44141,-2.4394 a 1.955338,1.955338 0 0 0 -2.06054,-0.1035 l 0.23632,-0.7676 a 1.955338,1.955338 0 0 0 -1.04296,-2.3438 l -3.85938,-1.8007 a 1.955338,1.955338 0 0 0 -0.20117,-0.1524 l -0.68555,-0.2558 -0.6875,-0.2579 a 1.955338,1.955338 0 0 0 -1.55859,0.082 l -4.03906,2.0156 -0.16407,-0.4238 a 1.955338,1.955338 0 0 0 -1.82422,-1.252 h -2.04101 v -0.2246 a 1.955338,1.955338 0 0 0 -1.41797,-1.8808 l -5.08594,-1.4532 a 1.955338,1.955338 0 0 0 -2.39453,1.2676 l -0.85351,2.584 c -0.90307,-0.058 -1.80991,-0.101 -2.72266,-0.1211 l -0.16211,-0.4785 a 1.955338,1.955338 0 0 0 -1.85156,-1.3301 h -0.94922 v -0.4062 a 1.955338,1.955338 0 0 0 -1.95508,-1.9551 z" />
      <path
         style="fill:#569e8f;fill-opacity:1;stroke-width:0.109067"
         d="m 404.56661,1200.535 v 4.6116 c -0.80253,0.1024 -1.60043,0.2193 -2.39315,0.3519 l -1.51257,-1.512 h -3.45094 l -0.26252,2.621 c -0.52276,0.1348 -1.0428,0.2763 -1.56011,0.4243 l -1.81023,-3.4086 -4.77491,1.7363 c 0.21281,0.3409 0.43318,0.6764 0.65993,1.0072 l -1.10588,0.5162 1.13017,3.6908 c -0.47049,0.261 -0.93806,0.5286 -1.40304,0.803 l -2.03914,-1.6681 -2.44017,2.4407 v 2.1384 c -0.65426,0.4669 -1.30112,0.9482 -1.94096,1.4433 l -3.26131,-3.2608 -3.14655,3.1466 1.66965,1.6701 -2.05415,2.0537 0.81804,1.6521 c -1.32032,1.3204 -2.56876,2.6854 -3.74549,4.0902 v 0 l -3.75018,-1.8888 -2.56881,4.624 1.54098,1.5415 -2.82567,2.8257 1.05574,2.3828 v 0 l -6.32055,2.1115 -0.61082,1.3327 c 0.0383,0.01 0.0769,0.02 0.11523,0.03 l -1.24074,3.4122 3.40858,1.8107 c -0.14814,0.5171 -0.28951,1.0373 -0.42426,1.5601 l -2.62155,0.262 v 3.4515 l 1.51257,1.5121 c -0.13247,0.7928 -0.24958,1.5906 -0.35192,2.3931 h -4.61161 v 4.4504 h 2.36112 v 2.9052 l 1.74664,0.5896 c 6e-5,1.8673 0.0821,3.7153 0.24339,5.5408 v 0 l -3.98735,1.3167 1.45315,5.086 h 2.17972 v 3.9962 l 2.43136,0.9384 c 5e-5,0 5e-5,0 0,0 l -1.54149,3.8722 0.50953,1.375 0.35862,0.9643 5.36041,1.7906 v 0 l -1.05575,2.3828 2.82568,2.8256 -1.54152,1.5416 2.56884,4.6239 3.75068,-1.8892 v 0 c 1.17676,1.4047 2.4252,2.7703 3.74552,4.0907 l -0.81754,1.6515 2.05415,2.0542 -1.66965,1.6696 3.14658,3.1471 3.26078,-3.2613 c 0.63984,0.4951 1.28722,0.977 1.94149,1.4439 v 2.1383 l 2.44014,2.4407 2.03914,-1.6686 c 0.46498,0.2744 0.93258,0.5425 1.40304,0.8036 l -1.13017,3.6907 0.65733,0.3064 c -0.0505,0.079 -0.10165,0.158 -0.15142,0.2378 l 2.99363,1.0888 1.10482,0.5152 c 0.008,-0.035 0.0153,-0.07 0.0233,-0.1054 l 0.6532,0.2377 1.81073,-3.4086 c 0.51732,0.148 1.03738,0.2889 1.56012,0.4237 l 0.26199,2.6216 h 3.45149 l 1.51204,-1.5121 c 0.79269,0.1326 1.59062,0.2495 2.39313,0.352 v 4.6115 h 4.45037 v -2.3615 h 2.90526 l 0.58962,-1.7462 c 1.86722,0 3.71531,-0.083 5.54075,-0.2439 v 0 l 1.31619,3.9878 5.08651,-1.4531 v -2.1797 h 3.99614 l 0.93845,-2.4314 v 0 l 5.96241,2.9761 1.37718,-0.5158 c -0.01,-0.017 -0.0198,-0.033 -0.0294,-0.05 l 3.9455,-1.8412 -1.13017,-3.6902 c 0.47045,-0.261 0.93805,-0.5292 1.40301,-0.8036 l 2.03917,1.6681 2.44014,-2.4401 v -2.1389 c 0.65426,-0.4669 1.30112,-0.9482 1.94096,-1.4433 l 3.2608,3.2608 3.14709,-3.1466 -1.66968,-1.6697 2.05415,-2.0541 -0.81804,-1.6521 c 1.32032,-1.3204 2.56878,-2.6854 3.74552,-4.0902 v 0 l 3.75068,1.8888 2.56884,-4.624 -1.54099,-1.541 2.82567,-2.8262 -1.05577,-2.3823 c 2.2e-4,0 0,0 0,0 l 5.35988,-1.7906 c 0.58275,0.3968 1.18041,0.7734 1.79369,1.126 l 0.50954,-1.3751 -2.97606,-5.9624 v 0 l 2.43138,-0.9384 v -3.9967 h 2.17972 l 1.45312,-5.086 -3.98785,-1.3162 v 0 c 0.16126,-1.8255 0.24384,-3.6734 0.24392,-5.5407 l 1.74664,-0.5897 v -2.9047 h 2.36109 v -4.4504 h -4.61158 c -0.10237,-0.8025 -0.21945,-1.6003 -0.35192,-2.3931 l 1.51204,-1.5126 v -3.4509 l -2.62102,-0.2625 c -0.13478,-0.5228 -0.27614,-1.0425 -0.42426,-1.5596 l 3.40858,-1.8108 -1.24077,-3.4122 c 0.0384,-0.01 0.0769,-0.02 0.11526,-0.03 l -0.61082,-1.3328 -6.32055,-2.1115 c -1.6e-4,-10e-5 0,0 0,0 l 1.05524,-2.3828 -2.82568,-2.8256 1.54152,-1.541 -2.56884,-4.6241 -3.75068,1.8888 v 0 c -1.17673,-1.4048 -2.42517,-2.7698 -3.74552,-4.0902 l 0.81804,-1.6521 -2.05412,-2.0541 1.66965,-1.6697 -3.14708,-3.1466 -3.26078,3.2608 c -0.63987,-0.4951 -1.28672,-0.9764 -1.94099,-1.4433 v -2.1389 l -2.44067,-2.4401 -2.03864,1.6681 c -0.46495,-0.2744 -0.93255,-0.5426 -1.40301,-0.8036 l 1.12964,-3.6902 -3.94496,-1.8412 c 0.01,-0.017 0.0198,-0.033 0.0294,-0.05 l -0.68728,-0.2574 v 0 l -0.68884,-0.2579 -5.96241,2.9761 c -2.4e-4,0 0,10e-5 0,0 l -0.93845,-2.4314 h -3.99614 v -2.1797 l -5.086,-1.4531 -1.3162,3.9878 v 0 c -1.82544,-0.1613 -3.67353,-0.2439 -5.54074,-0.2439 l -0.58963,-1.7461 h -2.90473 v -2.3617 z"
         id="path2907"
         sodipodi:nodetypes="ccccccccccccccccccccccsccccccccccccccccccccccscccccccccccccccccscccccccccccccccccccccccccccccsccccccccccccccccccccccscccccccccccccccccsccccccccccccccccccccccsccccccccccccccccccccccccsccccc" />
      <ellipse
         cx="-1310.7157"
         cy="-201.60707"
         id="circle2856-3"
         style="fill:#35e3c1;fill-opacity:1;stroke-width:0.483253"
         transform="matrix(-0.46790512,-0.8837787,0.94981269,-0.3128192,0,0)"
         rx="11.609565"
         ry="12.798573" />
      <ellipse
         cx="-1286.4753"
         cy="-478.13284"
         id="circle2858-8"
         style="fill:#35e3c1;fill-opacity:1;stroke-width:0.49666"
         transform="matrix(-0.62715357,-0.77889563,0.84581675,-0.53347354,0,0)"
         rx="13.294662"
         ry="14.212791" />
      <ellipse
         cx="-1039.3706"
         cy="-998.21228"
         id="circle2860-3"
         style="fill:#35e3c1;fill-opacity:1;stroke-width:0.483253"
         transform="matrix(-0.90521966,-0.42494397,0.57094722,-0.82098677,0,0)"
         rx="6.4321151"
         ry="7.0908685" />
      <ellipse
         cx="-1156.7781"
         cy="-803.19678"
         id="circle2862-7"
         style="fill:#35e3c1;fill-opacity:1;stroke-width:0.483253"
         transform="matrix(-0.8236711,-0.56706783,0.69735523,-0.71672567,0,0)"
         rx="8.9686003"
         ry="9.8871317" />
      <ellipse
         cx="-1312.3716"
         cy="-201.48656"
         id="circle12790"
         style="fill:#428476;fill-opacity:1;stroke-width:0.483253"
         transform="matrix(-0.46790512,-0.8837787,0.94981269,-0.3128192,0,0)"
         rx="11.609565"
         ry="12.798573" />
      <ellipse
         cx="-1289.1143"
         cy="-477.85004"
         id="circle12792"
         style="fill:#428476;fill-opacity:1;stroke-width:0.49666"
         transform="matrix(-0.62715357,-0.77889563,0.84581675,-0.53347354,0,0)"
         rx="13.294662"
         ry="14.212791" />
      <ellipse
         cx="-1040.8031"
         cy="-998.39038"
         id="circle12794"
         style="fill:#428476;fill-opacity:1;stroke-width:0.483253"
         transform="matrix(-0.90521966,-0.42494397,0.57094722,-0.82098677,0,0)"
         rx="6.4321151"
         ry="7.0908685" />
      <ellipse
         cx="-1158.434"
         cy="-803.07623"
         id="circle12796"
         style="fill:#428476;fill-opacity:1;stroke-width:0.483253"
         transform="matrix(-0.8236711,-0.56706783,0.69735523,-0.71672567,0,0)"
         rx="8.9686003"
         ry="9.8871317" />
      <ellipse
         cx="-1415.5493"
         cy="-803.74469"
         id="circle12872"
         style="fill:#428476;fill-opacity:1;stroke-width:0.59086"
         rx="7.4851112"
         ry="9.109108"
         transform="matrix(-0.78128361,-0.62417619,0.85256263,-0.52262507,0,0)" />
      <ellipse
         cx="-1413.522"
         cy="-803.12836"
         id="ellipse12937"
         style="fill:#35e3c1;fill-opacity:1;stroke-width:0.59086"
         rx="7.4851112"
         ry="9.109108"
         transform="matrix(-0.78128361,-0.62417619,0.85256263,-0.52262507,0,0)" />
      <ellipse
         cx="-1173.5562"
         cy="-1203.6279"
         id="ellipse20832"
         style="fill:#428476;fill-opacity:1;stroke-width:0.254982"
         rx="3.2301509"
         ry="3.9309762"
         transform="matrix(-0.96749352,-0.25289581,0.56667502,-0.82394139,0,0)" />
      <ellipse
         cx="-1172.7017"
         cy="-1202.9983"
         id="ellipse20834"
         style="fill:#35e3c1;fill-opacity:1;stroke-width:0.254982"
         rx="3.2301509"
         ry="3.9309762"
         transform="matrix(-0.96749352,-0.25289581,0.56667502,-0.82394139,0,0)" />
    </g>
  </g>
</svg>
